/* XPM */
static char *wxWindowsLogo1[] = {
/* columns rows colors chars-per-pixel */
"190 49 8 1",
"  c #355E91",
". c #698CB2",
"X c #BA0609",
"o c #D11F1E",
"O c #FEFEFE",
"+ c #D7D2DC",
"@ c #B4A9BA",
"# c #898D46",
/* pixels */
"OOOOOOOOOOOOOOOOOOOOOOOOOOOOOOOOOOOOOOOOOOOOOOOOOOOOOOOOOOOOOOOOOOOOOOOOOOOOOOOO ++ OOOOOOOOOOOOOOOOOOOOOOOOOOOOOOOOOOOOOOOOOOOOOO @+O+.OOOOOOOOOOOOOOOOOOOOOOOOOOOOOOOOOOOOOOOOOOOOOOOOOOOOOO",
"OOOOOOOOOOOOOOOOOOOOOOOOOOOOOOOOOOOOOOOOOOOOOOOOOOOOOOOOOOOOOOOOOOOOOOOOOOOOOOOO.OO+OOOOOOOOOOOOOOOOOOOOOOOOOOOOOOOOOOOOOOOOOOOO +OOOOO+OOOOOOOOOOOOOOOOOOOOOOOOOOOOOOOOOOOOOOOOOOOOOOOOOOOOOO",
"OOOOOOOOOOOOOOOOOOOOOOOOOOOOOOOOOOOOOOOOOO  OOOOOOOOOOOOOOOOOOOOOOOOOOOOOOOOOOOO OO+OOOOO  OOOOOOOOOOOOOOOOOOOOOOOOOOOOOOOOOOOO.O+++OOO.OOOOOOOOOOOOOOOOOOOOOOOOOOOOOOOOOOOOOOOOOOOOOOOOOOOOOO",
"OOOOOOOOO .OOOOO  OOOOOO.@ OOOOO   OOOOO @OO.OOOOOOOOOOOOOOOOOOOOOOOOO.OOOOOOOOOO+OOOOOO OO OOOOOOOOOOOOOOOOOOOOOOOOOOOOOOOOOO.O@OOOO  OOOOOOOOOOOOOOOOOOOOOOOOOOOOOOOOOOOOOOOOOOOOOOOOOOOOOOO",
"OOO .@+++OO OOO.OO OOOO OO.OOOO.OOO OOO.OOOO.OOOOOOOO  .@@ OOOOOOOOOO@.OOOOOOOOOO@OOOOOO+OO.OOOOOOOOOOOOOOOOOOOOOOOOOOOOOOOOO O+ OOOOOOOOOOOOOOOOOOOOOOOOOOOOOOOOOOOOOOOOOOOOOOOOOOOOOOOOOOOOO",
"OO@O+@.@OO.OOO OOO OOOOO+O@OO ++OOO OO.O+@..OOOOOO.@OOOOO@OOOOOOOOOO@O.OOOOOOOOOO.O+OOO OOO.OOOOOOOOOOOOOOOOOOOOOOOOOOOOOOOOO+O+OOOOOOOOOOOOOOOOOOOOOOOOOOOOOOOOOOOOOOOOOOOOOOOOOOOOOOOOOOOOOO",
"O@O OO +O+OOOO.OOO OOOOO.O@O +@  OO@O.O.OOOOOOOO +O@. OOO OOOOOOOOO@OO OOOOOOOOOO@O.OOOO.+.OOOOOOOOOOOOOOOOOOOOOOOOOOOOOOOOO.OO.OOOOOOOOOOOOOOOOOOOOOOOOOOOOOOOOOOOOOOOOOOOOOOOOOOOOOOOOOOOOOO",
" O+OOO+OO OOOO+OO+OOOOOO O.OO OOO+O+ +@OOOOOOOO@O@ OO@OO.OOOOOOOOO.OOOOOOOOOOOOO +O OOOOOOOOOOOOOOOOOOOOOOOOOOOOOOOOOOOOOOOO@OO OOOOOOOOOOOOOOOOOOOOOOOOOOOOOOOOOOOOOOOOOOOOOOOOOOOOOOOOOOOOOO",
" OO O.OO@OOOO OOO@OOOOOO O OOOOOO@OO+@OOOOOOOO@O.OOO OOO OOOOOOOO OOO+OOOOOOOOOO.O@OOOOOOOOOOOOOOOOOOOOOOOOOOOOOOOOOOOOOOOO OO+OOOOOOOOOOOOOOOOOOOOOOOOOOOOOOOOOOOOOOOOOOOOOOOOOOOOOOOOOOOOOOO",
"O .OO+OO.OOOO OOO OOOOOO@O OOOOOO.OO+ OOOOOOO.O.OOOO+OO@OOOOOOOO +OOO@OOOOOOOOOO+O OOOOOOOOOOOOOOOOOOOOOOOOOOOOOOOOOOOOOOOO OO+OOOOOOOOOOOOOOOOOOOOOOOOOOOOOOOOOOOOOOOOOOOOOOOOOOOOOOOOOOOOOOO",
"OOOO OOO OOOO OO+OOOOOO +.OOOOOOO OO.OOOOOOO +@OOOO OOO OOOOOOOO@O@OO.OOOOOOOOO.O+OOOOOOOOOOOOOOOOOOOOOOOOOOOOOOOOOOOOOOOOO@OO.OOOOOOOOOOOOOOOOOOOOOOOOOOOOOOOOOOOOOOOOOOOOOOOOOOOOOOOOOOOOOOO",
"OOOO.OO+OOOOO.OO@OOOOOO.O OOOOOOO OO@OOOOOOO.O OOOO.OO+OOOOOOOO.O.@OO.OOOOOOOOO+O OOOO   OOOOOOOO  OOOOOO  OOOOOOOOOOOOOOO +OO OOOOOOOOOOOOOOOOOOOOOOOOOOOOO  OOOOO  OOOOOOO . OOOOOOOOOOOOOOO",
"OOOO.OO+OOOOO OO+OOOOO +.OOOOOOOO+OO+OOOOOOO+OOOOOO+OO@OOOOOOO +@O@OO.OOOOOOOO.O@OOO @OOOOOOOOO +OO OOO @OO+OOOOOOOOOO @OOOOOOOOOOOOOOOO.@OOOO. OOOOOO ..@.+O+OOOO OO OOOOOOOO@OOOOOO @OOOO@ O",
"OOOO.OO+OOOOO+OO+OOOOO@+OOOOOOOO.O+OO OOOOOOOO OOOO+OO.OOOOOOO@O O+OO OOOOOOO O+ OO.OOOOOOOOO @OOOO OO.OOOOO OOOOOOOO.OOOOOOO+OOOOOOOO @O+@+OOO@OOO .+OOO+OOO.OOO +OO.OOOOOO+O+OOOOO +O..OOO+O",
"OOOO OO+OOOO@OOO+OOOO@+ OOOOOOO O..OO OOOOOOOO@OOO +OO OOOOOO.O.OO+OO OOOOOOO@O.OO@O@@OO+OOO ++.OO+  +O++OOO OOOOOOO@O. O @OO@OOOOOOO +O.OOO+OOO OO+O@   .OO.OOOO.OOO.OOOOOO@OOOOOO OO OO OOO ",
"OOOO OOOOOO@O OOOOOO@O OOOOOOOO+@O OO.OOOOOO@OOOOO OOOOOOOOO ++OOOOOO OOOOOO O@OO@O O@OO.OO O.O.OO+ +@ O.OO+OOOOOOO+O.OOOO@OO OOOOOO +O.OOOO OOO+O.O.OOO OO+OOOOO+OOO.OOOOOO O+OOOO.OOOOOO +.O",
"OOOOOOOO O@O O+OO  @O OOOOOOOO@+ OO+O+OOOOOO +.OOO OOO OOOOO@O OOOOOOOOOOOO ++ OO. OOOOO OO..OO.OO@+@OOO.OO@OOOOOO@O.OOOOO+OO OOOOOO@O+OOOOOO+OO+O@O.OO OOO.OOOO OOOO OOOOOO O+OOOO@OO OOOOOOO",
"OOOOO+OO.++ OO+OO.++ OOOO.+ O@O OOO@OOOOOOOOOOOOOO OO+ OOOO.O@OOO OOOOOOOOO+O OOOOOO OO+OOOOOOO+OOO.OOOO+OO OOOOO.O+OOOOO OO+OOOOOO.OO OOOOOO+OOOO.O+OO@OO+OOOOO OOO@OOOOOOO O.OOOO@OO@OOOOOOO",
"OOOOO.OOO@ OOO@OOO@ OOOOO+OO+O OOOO.OO OOOOOOOOOOO +OO OOO O+OOOO OOOOOOOO.O.OOOOOOO@OO@OOOOOO OOO@OOOO OO+ OOOO +O.OOOOO.OO@OOOOOO+OO OOOOOO@OO+OO. O OOO@OOOOO OOO.OOOOOOO.O OOOO@OOO OOOOOO",
"OOOOO.O+.OOOOO O+.OOOOOOO.OO+ OOOOO OO.OOOOOOOOOOO OOOOOOO@O OOOO +OOOOOO O+OOOOOOOO+OO OOOOOO OOO OOOO.OO+OOOOO.O+OOOOOO@OO.OOOOO OO+OOOOOOO@OOOOOOOO.OOO OOOOO.OO+OOOOOOOO++OOOOO OOOO OOOOO",
"OOOOO . OOOOOO @ OOOOOOOOOOOOOOOOOOO@O+OOOOOOOOOOO +OO OO.O.OOOOO OO+OOO ++ OOOOOOO OOO OOOOOO.OO@OOOOO@OO.OOOO +O@OOOOOO+OO OOOOO@OO@OOOOOOO@OO+OOOOO.OOO OOOOO.OO+OOOOOOO.O OOOOOO.OOO+ OOOO",
"OOOOOOOOOOOOOO+OOOO+OO++OOO+OOOOOOOO OO OOOOOOOOOO +OO O ++OOOOOO OO+OO +O OOOOOOOO.OO@OOOOOOO+OO.OOOO +OO OOOO.OO OOOOO OOOOOOOOO+OO.OOOOOOO+OO.OOOOO@OOOOOOOOO.OO+OOOOOO +@OOOOOOOO+OOO+OOOO",
"OOOOOOOOOOOOOO++O+++O+++OO++O+OOOOOOO+O+OOOO @.OOOO+OO O+O OOOOOO OO+OO@O.OOOOOOOOO@OO.OOOOOO OOO OOOO.OO+OOOOO@OO OOOOO.OO@OOOOO OOO.OOOOOOOOOO OOOOO.OO+OOOOOO@OOOOOOOOO@O OOOOOOOO +OOO.OOO",
"OOOOOOOOOOOOOOO+              OOOOOOO +O@OOO@O@OOOO+OO .O.OOOOOOO OO+O.O@OOOOOOOOOO+OO OOOOOO OO+OOOOO.OO.OOOO OO+OOOOOO+OO.OOOOO OOO.OOOOOO OO@OOOOOO.OO+ OOOO.OOOOOOOOO@O OOOOOOOOOO OOO@OOO",
"OOOOOOOOOOOOOO+ ........  .... +OOOOOO @O+.@OO OOOO+OO@O@OOOOOOOO.OO+.O@OOOOOOOOOO OOOOOOOOOO.OO@OOOOO+OO OOOO OO+OOOOO.OOO OOOOO OOO.OOOOOO@OO OOOOOO OOO OOO.O@OOO OOO.O.OOOOO  OOOOO OO+OOO",
"OOOOOOOOOOOOOO+ .O............ OOOOOOOOO.+++@ OOOOO+OOO+ OOOOOOOO.OOO++ OOOOOOOOOO.OO+OO.+ OO@OO.OOOO OO+ OO@..OO+OOOO.OOO+ OO..O OOO@OOOOO OO.OOOOOOO OOO OO.O. OOO OO.O.OOOOO@O+OOOOO OO@OOO",
"OOOOOOOOOOOOOOO .O......... .  +OOOOOOOOOOOOOOOOOOO@OOO OOOOOOOOO.OOOO OOOOOOOOOOO@OO.O.O.OOO+OO OOOO OO+  @+ .OOO.O .O@OO+  @+ OO+OOO OOOO@O@OOOOOOOOOOOO.O@O.OO+OO. @O.OOOOOOOOOOOOOO.OO OOO",
"OOOOOOOOOOOOOOO .O.. ........  +OOOOOOOOOOOOOOOOOOO.OO.OOOOOOOOOO.OOO OOOOOOOOOOOO+OO++O.OOO OOO OOOO OOO.++ O OOOO+OO. OOO@++ OOO.OOO@OOO@O@OOOOOOOOOO@OO++O.OOO+OO@+O.OOOOOOO+OO OOO +O@OOOO",
"OOOOOOOOOOOOOO@ .+............ +OOOOOOOOOOOOOOOOOOO.O.OOOOOOOOOOO.OO OOOOOOOOOOOOO+OOO+ OOOO.OO+OOOOO OOOO@ OO OOOOO+.O@OOOO.OOOOO +OOO+++O.OOOOOOOOOOO@OOO+ OOOO@OOO+ OOOOOOOO OO+. .+O@ OOOO",
"OOOOOOOOOOOOO++ .O@........... O++OOOOO+OOOOOOOOOOO +OOOOOOOOOOOO.+.OOOOOOOOOOOOOO.+O. OOOOO .. OOOOOO+O+ OOOOO.OOO@ OO.OO@ OOOOOOO @+O++@ OOOOOOOOOOOO.OO@OOOOOO.OO. OOOOOOOOOO @++OO+ OOOOOO",
"OOOOOOOOOOOOOOO .O........     +@++@OO++O+OOOOOOOOO  OOOOOOOOOOOO..OOOOOOOOOOOOOOOO  OOOOOOOOOOOOOOOOOO OOOOOOOO   OOOOO  OOOOOOOOOOOO  OOOOOOOOOOOOOOO @ OOOOOOO @ OOOOOOOOOOOOOOO  OOOOOOOOO",
"OOOOOOOOOOOOOO+ .O@. ..... #               OOOOOOOOOOOOOOOOOOOOOO OOOOOOOOOOOOOOOOOOOOOOOOOOOOOOOOOOOOOOOOOOOOOO+OOOOOOOOOOOOOOOOOOOOOOOOOOOOOOOOOOOOOOOOOOOOOOOOOOOOOOOOOOOOOOOOOOOOOOOOOOOOO",
"OOOOOOO++O+++++ .O@........ ############## ++OOOOOOOOOOOOOOOOOOOOOOOOOOOOOOOOOOOOOOOOOOOOOOOOOOOOOOOOOOOOOOOOOOOOOOOOOOOOOOOOOOOOOOOOOOOOOOOOOOOOOOOOOOOOOOOOOOOOOOOOOOOOOOOOOOOOOOOOOOOOOOOOO",
"OOOO++          .+@.......  #+############ O+OOOOOOOOOOOOOOOOOOOOOOOOOOOOOOOOOOOOOOOOOOOOOOOOOOOOOOOOOOOOOOOOOOOOOOOOOOOOOOOOOOOOOOOOOOOOOOOOOOOOOOOOOOOOOOOOOOOOOOOOOOOOOOOOOOOOOOOOOOOOOOOOO",
"OOOOO ooXoooooX .O#.......  #++############OOOOOOOOOOOOOOOOOOOOOOOOOOOOOOOOOOOOOOOOOOOOOOOOOOOOOOOOOOOOOOOOOOOOOOOOOOOOOOOOOOOOOOOOOOOOOOOOOOOOOOOOOOOOOOOOOOOOOOOOOOOOOOOOOOOOOOOOOOOOOOOOOOO",
"OOOOO oooooooXX .O.. ....   #++############OOOOOXXXXXXXXXXXXXXXXXXXXXXXXXXXXXXXXXXXXXXXXXXXXXXXXXXXXXXXXXXXXXXXXXXXXXXXXXXXXXXXXXXXXXXXXXXXXXXXXXXXXXXXXXXXXXXXXXXXXXXXXXXXXXXXXXXXXXXXXXXXOOO",
"OOOOO o@+oooooo  ...... ..  #++########### OOOOXXoXoXXXXXXXXXXXXXXXXXXXXXXXXXXXXXXXXXXXXXXXXXXXXXXXXXXXXXXoXXoXXXXXXXXXXoXXoXXXXXXXXXXXXXXXXXXXXoXoXXXXXXXXXXXXXXXXXXXXXXXXXXXXXXXXXXXXoXXXXOO",
"OOOO+ o@+oooooo   .....  .  #++########### +OOXXXXXXXXXoXooXXXXXXXXXXXXXXXXXXXXXXXXXXXXXXXXoXXXXXXXXXoXooXXXXXXXXXXXXXXXXXXXXXXXXoXooXXXXXXXXXXXXXXXXXXXXooXooXXXXXXXXXXXXXXXXXXXXXXXXXXXXXXXO",
"OOOOO X@OooooooX            #++########### +OOXXoXoXXXXoOOO+oXXXXXXXXXXXXXXXXXXXXXXXX@OO+ooOoXXXXXXX+@X+OoXXoXXXXXXXXXXXXXXXXXXXXoOOOO@XXO#ooOX@+XooX@+XX@Oo+@XXXXXXXXXXXXXXXXXXXXXXXXXXXXXXXO",
"OOOOO X@OooooooooXXX +OO+O+ #++########### OOXXXXXXXoX@O@o#++XoooXXooXXXooXXXooXXXXXX++@O@oOoXXoXooX++oO@XXXooXXoXoXoXooXooXXXXXoO+oo@OooOoo@Oo@OoXXX++XXo@X+@ooXXXooXXooooXXooooXXXoXXXXXXXXX",
"OOOO+ o@Oooooooooooo +OOO++ #O+########### ++XXXoXXXXoO@XXXoooO+@o+OO+XoOO+o@OO@XXXXX++o+@#Ooo+OO++@OOOOOooOOO@X+OOoO+OO@OO+XXXX++XXXXoooOoXoOX@OXXXX@+oXoOo++OO+ooOO#oOOOO@oOO@OoXoOoXXXXXXXX",
"OOOO+ o@+ooooooooooo +OOO++ #++########### O+XXXXXXXXoO@XXXXXoO@X@+ooO@oOo#X+@@oXXXoX+OOOooOo+OooO+X++oO@XO@o@+o++o#O@oOOo@OoXXX+@XXoooooO@XoOX@OXXXo@+oX@OX++ooO@@OooO+ooO@@OoX++X++XXXXXXXXX",
"OOOO+ o@Oooooooooooo ++OOOO #++############OOXXXXoXXXoOoXXXXX#OoXO@XX++o+O+ooOOoXOO+X@+ooXoOo+@XX@+X+@oO@oOoXXO@@@XoOoX@+XoOoXXX++XXOOO+oOoo@OX@OXXXX++XXoOXO@XX@+oOXoO#XX+@oOXXoOoOoXXXXXXXXX",
"OOO++ o@Oooooooooooo ++OOOO##++############OOoXXoXXoXX++oXX@@oOoX+@oX+@Xo@Oooo++Xo#oX++XXooOo++XX++X+@XOooO#XoOo@+ooOoX+@XoOoXXXoO@XooO@X+@X@OX@OXXXX++XX@OX++Xo+@@OXXO@Xo+@@OXXoOO+XXXXXXXXXX",
"OOOO+ X@+ooooooooooo OOOOOO ############## OOXXXXXoXXXo+O++O@oOoXoO+++ooO+Oo+O+@XXXXX++XXXoOo#O++O+X++oO@X@O+O+X++ooOoX++XoOoXXXX@OOOO+XX@O+O@X@OXXXX+OO+@Oo+OO+Oo@OXX@O+OO+@OoXX@OoXXXXXXXXXX",
"OOOO+ o@+ooooooooooo OOOOO+ ############## OOOXXXXXXXXXo@@@oXo#oXXo@@oXoo@oXoo@XoXoXXooXXXo@oXo@@ooX#ooooXXo@#XXooXo@oXoooooooXXXXo@@oXXXXo@@XXo#XXXXo@o@o#X@oo@oXo@XXXo@oooo#XXX@OoXXXXXXXXXO",
"OOOOO oo@ooooooooooo @OOOO+       ##    #  OOOXXoXoXXXoXXXXXXXXXXXXXXXoXXXXXXoXXXXXXXXoXXXXXXXXXXXoXoXXXXXXXoXXXXXXXXXXXXXXoXXXXoXoXXXXoXXoXXXXXXXXXXXXoXXXXXXXXXXXXXXXXXXXXXXXXoOooXoXXXXXXXO",
"OOOOO oooooooooooooX +OOOO++O++O+OOO+++OO+OOOOOXXXXXoXXXoXXoXXXXXXXXXXXXXXXXXXXoXoXXXXXXXXXXXXXXXXXXoXoXXXXXoXoXXXXXXXXXXXXXoXXXXXXXXXXXXXXXXXXXXXXXXXXXXXXXXXXXXXXXXXXXXoXXXXXXooXoXXXXXXXXOO",
"OOOOOO              X@@++OOOOOOO++OOOOOOOOOOOOOOXXXXX#XXXX XXXX ooXooXXoX XXoXX oXX oXXX oXXoX XX XXoXX oXoXX XXoXoXoXXo XXXo XXXXo XXXo XXoXo XX oXXX oXXoX XXoXoXoXoXX XoXX XXXoXX XXoXo+OOO"
};
