/* XPM */
static char * Untitled_xpm[] = {
"32 32 176 2",
"  	c #FFFFFF",
". 	c #DFF2FB",
"+ 	c #C8EAF8",
"@ 	c #CBEBF8",
"# 	c #C9EAF8",
"$ 	c #D6EFF9",
"% 	c #76CAEC",
"& 	c #16A5DF",
"* 	c #23AAE1",
"= 	c #19A5E0",
"- 	c #51BBE7",
"; 	c #FDFEFF",
"> 	c #75CAEC",
", 	c #16A4DF",
"' 	c #23A9E1",
") 	c #50BAE7",
"! 	c #FEFEFF",
"~ 	c #74C9EC",
"{ 	c #15A4DF",
"] 	c #22A9E1",
"^ 	c #18A5E0",
"/ 	c #79CBEC",
"( 	c #1CA7E0",
"_ 	c #29ACE2",
": 	c #1FA8E1",
"< 	c #55BDE8",
"[ 	c #FEFFFF",
"} 	c #ECF8FC",
"| 	c #DCF1FB",
"1 	c #DAF0FA",
"2 	c #D7F0FA",
"3 	c #D5EFFA",
"4 	c #DFF3FA",
"5 	c #DFEDF6",
"6 	c #B1D2E9",
"7 	c #8DBEDF",
"8 	c #7BB4DA",
"9 	c #77B1D9",
"0 	c #A6CCE6",
"a 	c #DCF2FA",
"b 	c #DEF2FB",
"c 	c #ACCFE8",
"d 	c #4B98CD",
"e 	c #1479BE",
"f 	c #006DB8",
"g 	c #1E7FC0",
"h 	c #348BC6",
"i 	c #207CBF",
"j 	c #4B97CC",
"k 	c #1CA6E0",
"l 	c #49B8E6",
"m 	c #8BD2EF",
"n 	c #E4F4FB",
"o 	c #EAF3F9",
"p 	c #539DCF",
"q 	c #006CB7",
"r 	c #1379BD",
"s 	c #B0D2E9",
"t 	c #F5FAFD",
"u 	c #F7FBFD",
"v 	c #E8F2F8",
"w 	c #14A3DF",
"x 	c #33B0E3",
"y 	c #C4E8F7",
"z 	c #FBFCFE",
"A 	c #539ECF",
"B 	c #006AB6",
"C 	c #0C75BC",
"D 	c #0A74BB",
"E 	c #157ABE",
"F 	c #D9EAF5",
"G 	c #18A5DF",
"H 	c #25AAE1",
"I 	c #C1DBED",
"J 	c #0470B9",
"K 	c #0C74BB",
"L 	c #0E76BC",
"M 	c #006EB8",
"N 	c #58A0D1",
"O 	c #1BA6E0",
"P 	c #9EC8E4",
"Q 	c #006EB7",
"R 	c #0D76BC",
"S 	c #0571B9",
"T 	c #3089C6",
"U 	c #FAFDFE",
"V 	c #52BBE7",
"W 	c #B7D6EB",
"X 	c #0B75BC",
"Y 	c #006BB7",
"Z 	c #559ED0",
"` 	c #5AA1D1",
" .	c #006DB7",
"..	c #006BB6",
"+.	c #1479BD",
"@.	c #C4DEEF",
"#.	c #A7CDE6",
"$.	c #75B0D8",
"%.	c #83B8DD",
"&.	c #D8E8F4",
"*.	c #F9FCFE",
"=.	c #F6FAFD",
"-.	c #77CAED",
";.	c #E9F2F9",
">.	c #ABCFE8",
",.	c #77B2D9",
"'.	c #4595CB",
").	c #267FC0",
"!.	c #5EA1D1",
"~.	c #79CBED",
"{.	c #B5D5EB",
"].	c #549ECF",
"^.	c #197CBF",
"/.	c #0069B5",
"(.	c #0571BA",
"_.	c #85B8DD",
":.	c #BED9EC",
"<.	c #77CBED",
"[.	c #DAEAF4",
"}.	c #4C99CD",
"|.	c #036FB9",
"1.	c #3E91C9",
"2.	c #D3E6F3",
"3.	c #D4E6F2",
"4.	c #2181C1",
"5.	c #006CB8",
"6.	c #DDEBF5",
"7.	c #F5F9FC",
"8.	c #3C90C9",
"9.	c #0F76BC",
"0.	c #026FB8",
"a.	c #B2D3EA",
"b.	c #016EB8",
"c.	c #016FB8",
"d.	c #519BCE",
"e.	c #7FB6DC",
"f.	c #0671BA",
"g.	c #2C87C5",
"h.	c #78B2DA",
"i.	c #A1C9E5",
"j.	c #AACFE7",
"k.	c #0973BB",
"l.	c #197DBF",
"m.	c #9CC6E3",
"n.	c #D5E7F3",
"o.	c #8DBDDF",
"p.	c #4796CC",
"q.	c #0069B6",
"r.	c #0B74BB",
"s.	c #0F77BC",
"t.	c #0370B9",
"u.	c #0065B4",
"v.	c #64A5D3",
"w.	c #78CBED",
"x.	c #E7F1F8",
"y.	c #0872BA",
"z.	c #2280C1",
"A.	c #90C0E0",
"B.	c #F9FCFD",
"C.	c #6FC7EB",
"D.	c #0BA0DD",
"E.	c #19A5DF",
"F.	c #0EA1DE",
"G.	c #48B7E6",
"H.	c #C5DEEF",
"I.	c #83B9DD",
"J.	c #5DA3D2",
"K.	c #57A0D1",
"L.	c #71AFD8",
"M.	c #A9CEE7",
"N.	c #ECF5FA",
"O.	c #A1DAF2",
"P.	c #60C1E9",
"Q.	c #69C5EB",
"R.	c #62C2EA",
"S.	c #88D1EF",
"                                                                ",
"                                                                ",
"                                      . + @ @ # $               ",
"                                      % & * * = - ;             ",
"                                      > , ' ' = ) !             ",
"                                      ~ { ] ] ^ ) !             ",
"                                      / ( _ _ : < [             ",
"                                      } | 1 2 3 4               ",
"                        5 6 7 8 9 0   a b                       ",
"                    c d e f g h i j   ~ k l m n                 ",
"                o p f q r s t [ u v   % { k w x y               ",
"              z A B C D E F           % G H H w < [             ",
"              I J K L L M N !         % G H H O ) !             ",
"              P Q R L L S T U         % G H H O V !             ",
"              W M X L L Y Z           % G H H O V !             ",
"              u ` Y  ...+.@.          % G H H O V !             ",
"                U #.$.%.&.      *.=.  -.G H H O V !             ",
"                        ;.>.,.'.).!.  ~.G H H O V !             ",
"                    {.].^./.(.d _.:.  <.G H H O V !             ",
"                [.}.|.M f 1.2.        % G H H O V !             ",
"              3.4.5.C D ^.6.          % G H H O V !             ",
"            7.8. .9.L 0.d             % G H H O V !             ",
"            a.b.R L L c.d.            % G H H O V !             ",
"            e.5.L L L f.g.=.          % G H H O V !             ",
"            h.5.L L L R J i.          % G H H O V !             ",
"            j.f R L L L k.l.m.n.6 o.  ~.G H H O V !             ",
"            7.p.q.r.L L s.k.t.D u.v.  w.G H H O V !             ",
"              x.` y.q M M f b.z.A.B.  C.D.E.E.F.G.!             ",
"                  H.I.J.K.L.M.N.      O.P.Q.Q.R.S.[             ",
"                                                                ",
"                                                                ",
"                                                                "};
