/* XPM */
static const char *xpm_data[] = {
/* columns rows colors chars-per-pixel */
"32 32 10 1",
"a c Black",
"b c #FF0000",
"c c #C0C0C0",
"d c #00FF00",
"e c #FFFF00",
"f c #800000",
"g c #00FFFF",
"h c #FFFFFF",
"i c #808080",
"j c #800080",
/* pixels */
"eeeeeeeeeeeeeeeeeeeeeeeeeeeeeeee",
"eebbgeeeeeeeeeeeeeeeeeeeeeeeeeee",
"ebbgbgeeeebgeeeeeeeeeebgebbbgbge",
"bbgeebgeeebgeeeeeeeeeebgeebgebge",
"bbgeebgeegbgeeeeeeeeebbbgebgbbbg",
"bbgggbgebbbgebbgebgbgebgeebgebge",
"bbbbbbgbgebgbgebgbbebgbgeebgebge",
"bbgeebgbgebgebbbgbgebgbgeebgebge",
"bbgeebgbggbgbgebgbgebgbgeebgebge",
"bbgeebgebbgebbbbgbbbgebgebbbgbge",
"eeeeeeeeeeeeeeeeebgeeeeeeeeeeeee",
"eeeeeiceeeeeeeeeebgeeeeeeeeeeeee",
"eeeeicaeeeeeeeeeebgiiiiiiiieeeee",
"eeeicahaeeeeeeeeeeeiiaaaaiieeeee",
"eeicahhaeeeeehfeeeeiaggggaihheee",
"eicahhhhaehhhhffeeeiaggggaifffee",
"ccahhhhhaeeffffffeeiaggggaiehfee",
"aahhhahhhaeeehffeeeiiaaaaiiehfee",
"ahhhahhahaeeehfeeeeiiiiiiiifffff",
"cahahhahhhaeeeeeeeeiadddddihfffe",
"cahhhahhahaeeeeeeeeidddfffiehfee",
"icahahhahhaeeeeeeeeiiiiiiiieehee",
"icahhhhhhhhaeeeeeaaaaaaaaaaaaaaa",
"eicahhahhahaeeeeahhhhhhhhhhhhhha",
"eicahahhahaaeeeahhhhhhjhhjhjhhac",
"eicahhhahaeeeeahhjhhjhhjhhhjhaci",
"eeicahhhaeeeeahhjhhjhhjhhhjhhaci",
"eeicahhaeeeeahjhhhhjhhhjhhjhacie",
"eeicahaeeeeahhhjhhjhhjjhhjhhacie",
"eeicaaeeeeeaaaaaaaaaaaaaaaaaciee",
"eeeeeeeeeeecccccccccccccccccieee",
"eeeeeeeeeeeeiiiiiiiiiiiiiiiieeee"
};
